<?xml version="1.0" encoding="UTF-8" standalone="no"?>
<!-- Created with Inkscape (http://www.inkscape.org/) -->

<svg
   width="150mm"
   height="150mm"
   viewBox="0 0 149.99999 150"
   version="1.1"
   id="svg1"
   xml:space="preserve"
   inkscape:version="1.3.1 (91b66b0783, 2023-11-16)"
   sodipodi:docname="logo.svg"
   inkscape:export-filename="logo.png"
   inkscape:export-xdpi="25.891973"
   inkscape:export-ydpi="25.891973"
   xmlns:inkscape="http://www.inkscape.org/namespaces/inkscape"
   xmlns:sodipodi="http://sodipodi.sourceforge.net/DTD/sodipodi-0.dtd"
   xmlns="http://www.w3.org/2000/svg"
   xmlns:svg="http://www.w3.org/2000/svg"><sodipodi:namedview
     id="namedview1"
     pagecolor="#ffffff"
     bordercolor="#000000"
     borderopacity="0.25"
     inkscape:showpageshadow="2"
     inkscape:pageopacity="0.0"
     inkscape:pagecheckerboard="0"
     inkscape:deskcolor="#d1d1d1"
     inkscape:document-units="mm"
     inkscape:zoom="1.0449705"
     inkscape:cx="397.14038"
     inkscape:cy="561.25984"
     inkscape:window-width="2560"
     inkscape:window-height="1369"
     inkscape:window-x="-8"
     inkscape:window-y="-8"
     inkscape:window-maximized="1"
     inkscape:current-layer="layer1" /><defs
     id="defs1" /><g
     inkscape:label="Ebene 1"
     inkscape:groupmode="layer"
     id="layer1"><circle
       style="fill:#ffffff;stroke:#ffffff;stroke-width:4.59999;stroke-miterlimit:3.6;paint-order:stroke markers fill;fill-opacity:1"
       id="path3"
       cx="74.060104"
       cy="75.072891"
       r="71.274933" /><path
       style="fill:#050404;stroke:none;stroke-width:0.961654"
       d="M 83.65878,2.947591 C 80.336486,3.383807 77.051965,3.4818188 73.836578,4.603223 62.833383,8.4406947 53.367387,17.941175 54.208161,30.195381 c 0.325116,4.738465 2.491435,8.65186 5.571152,12.14381 0.835399,0.94722 3.127809,2.640981 1.680577,4.030716 -1.232773,1.183787 -3.987114,0.460142 -5.481852,0.255338 C 51.424009,46.001286 46.817252,45.322694 42.226949,45.98738 26.514855,48.2625 17.073055,62.107715 13.632602,76.627608 c -1.702263,7.184156 -1.4099,14.646785 -1.58922,21.966022 -0.273437,11.16103 -0.10482,22.66332 1.355519,33.75265 0.431465,3.2764 0.705431,6.55023 1.220474,9.8222 0.201851,1.28236 0.159596,2.74981 0.763399,3.92889 1.140801,2.22772 4.176407,3.01141 6.485435,2.67795 1.969045,-0.28438 4.232145,-1.48072 4.726723,-3.57089 0.453209,-1.91532 -0.402154,-4.64485 -0.588946,-6.60766 -0.435533,-4.57664 -0.744657,-9.33166 -0.744657,-13.92967 0,-14.61913 -1.367914,-30.008761 3.333594,-44.110613 2.667966,-8.00236 8.145375,-15.55574 16.846567,-17.322107 4.090551,-0.830388 8.53121,-0.681996 12.500986,0.654261 1.313514,0.44214 3.534474,1.447934 3.596232,3.095354 0.04241,1.131078 -1.055541,2.14421 -1.810517,2.840688 -2.187042,2.01758 -5.086401,3.215176 -7.321872,5.22611 -5.449319,4.902006 -9.12029,11.134083 -9.62763,18.542437 -1.318207,19.24924 14.97136,37.28337 33.558084,40.6417 11.44157,2.06732 23.965827,-1.11955 33.395487,-7.85831 29.21641,-20.87907 36.71083,-62.437828 20.31962,-93.502455 C 122.71614,18.971472 111.08258,7.7435723 95.445422,4.1431195 91.807713,3.3055475 87.38821,2.457907 83.65878,2.947591 m -5.536157,5.6900697 c 1.121067,-0.1376127 2.292824,0.04991 3.39313,0.2717347 10.597497,2.1369886 9.64995,18.7118486 -0.892925,20.0080436 -3.008872,0.369929 -6.310279,-0.384681 -8.571417,-2.489031 -4.707312,-4.380902 -4.248728,-12.669862 1.24941,-16.191747 1.479967,-0.9479988 3.089718,-1.3863881 4.821802,-1.5990003 m 18.037135,2.9151013 c 2.176801,0 2.148547,3.306292 0,3.405256 -2.236963,0.103041 -2.262284,-3.405256 0,-3.405256 m -18.93006,0.699882 c -7.954886,1.799938 -4.958078,14.912353 2.857373,13.140909 8.694095,-1.970603 5.833058,-15.107271 -2.857373,-13.140909 m 0.892925,2.483385 c 2.083626,-0.168501 1.91926,2.761804 0,2.831312 -1.905182,0.06905 -1.928406,-2.67537 0,-2.831312 m -15.536789,0.573098 c 1.067292,-0.341099 2.274254,0.77945 2.039822,1.849511 -0.301892,1.377993 -1.776243,2.346995 -2.433649,3.571709 -0.929535,1.73168 -0.961798,3.477631 -1.268008,5.357569 -0.12465,0.765265 -0.555779,1.550744 -1.374396,1.725775 -1.998933,0.427388 -1.874534,-2.117419 -1.641996,-3.333046 0.483952,-2.52991 1.335064,-4.777912 2.704691,-6.964839 0.487068,-0.777699 1.030739,-1.905373 1.973536,-2.206679 m 42.324616,2.079779 c 12.33546,-1.603048 18.45728,15.488818 7.85776,21.947962 -1.38978,0.846909 -3.02511,1.467436 -4.64322,1.698618 -12.344701,1.763799 -18.937593,-15.674398 -7.85776,-22.030779 1.42912,-0.819878 3.00457,-1.402852 4.64322,-1.615801 M 82.232704,17.98418 c 1.473274,-0.363736 1.829047,1.982729 0.338435,2.304393 -1.590182,0.343137 -1.787648,-1.94659 -0.338435,-2.304393 m 23.213496,3.001227 c -1.44384,0.207217 -2.73316,0.693497 -3.92887,1.538512 -6.674444,4.716895 -2.275624,16.107018 5.89332,14.939858 3.79798,-0.542643 7.14279,-3.872054 7.31497,-7.804153 0.20984,-4.792182 -4.40873,-9.373253 -9.27942,-8.674217 m 0.17942,3.036923 c 2.26356,-0.629989 3.7444,2.445593 1.24913,3.169478 -2.08743,0.605573 -3.36722,-2.579974 -1.24913,-3.169478 m 4.64309,4.465326 c 1.88537,-0.496367 2.47759,2.234241 0.71282,2.701105 -1.94971,0.515802 -2.64406,-2.192668 -0.71282,-2.701105 m -44.822888,1.964439 c 1.966218,-0.526265 2.557962,2.406415 0.708826,2.87776 -2.002472,0.510436 -2.60266,-2.370863 -0.708826,-2.87776 m 13.569735,12.601441 c -1.357413,-3.234783 1.106682,-7.105663 3.050973,-9.465035 0.75613,-0.917562 1.529242,-1.950696 2.663763,-2.413934 1.699917,-0.694084 3.764098,0.70669 2.755121,2.589908 -1.134195,2.116919 -4.163434,2.328252 -5.171671,4.645839 -0.9131,2.098868 -1.651449,3.083188 -3.298186,4.643222 M 70.10572,31.374793 c 0.990456,-0.404943 2.251007,0.306613 3.016512,0.876932 1.922847,1.432557 3.261518,3.253902 3.703725,5.622832 1.072273,5.744365 -1.250997,9.971162 -6.203915,12.882965 -6.151308,3.61632 -12.31079,3.091786 -19.108648,2.245953 -1.654151,-0.205813 -4.208429,-0.03135 -5.713909,-0.617469 -0.887251,-0.345435 -1.492747,-1.646256 -0.761188,-2.445486 0.625989,-0.68389 2.089089,-0.48904 2.903389,-0.382114 2.253569,0.295901 4.527766,0.430129 6.786249,0.741205 5.666596,0.780498 11.99232,0.138815 16.235292,-4.217152 4.081391,-4.190082 2.291935,-8.17084 -1.031692,-11.958884 -0.647789,-0.73831 -1.019026,-2.260945 0.174185,-2.748782 m -29.663938,0.54443 c -2.806116,0.886049 -1.397851,5.139351 1.425384,4.231492 2.624816,-0.844054 1.316985,-5.097423 -1.425384,-4.231492 m 79.651188,8.532971 c 2.31223,-0.648972 3.73267,2.626586 1.2472,3.377003 -2.09627,0.632922 -3.32372,-2.794173 -1.2472,-3.377003 m -31.969412,0.178589 c 2.54972,-0.697988 3.995433,2.851969 1.249958,3.567997 -2.137123,0.557356 -3.61758,-2.919861 -1.249958,-3.567997 M 77.944044,53.590084 c -0.891819,-0.290189 -2.332791,-0.507321 -2.928199,-1.290203 -0.919265,-1.208684 0.333271,-4.077847 1.532579,-4.704125 1.561688,-0.815492 2.427879,1.410016 3.53933,2.049468 1.160101,0.667427 3.17068,0.467989 4.463951,0.34283 2.783498,-0.269359 5.554149,-1.634485 7.67903,-3.420816 0.948759,-0.797596 1.663066,-2.218411 2.857519,-2.666667 1.252295,-0.46996 2.458614,0.770295 2.25808,2.010338 -0.204159,1.26247 -1.390139,2.362391 -2.258224,3.211916 -3.173567,3.105682 -8.417083,4.880097 -12.679433,5.820153 -1.270614,0.280235 -5.467745,1.220426 -4.464633,-1.352894 m 47.511586,-6.527459 c 1.75121,-0.453151 3.02655,2.315452 1.06091,2.861219 -1.67977,0.466403 -2.81887,-2.406337 -1.06091,-2.861219 m -16.97347,1.042424 c 6.83243,-0.839111 13.52949,4.590447 14.41375,11.37835 0.69979,5.371945 -2.00538,10.560618 -6.73457,13.159662 -1.48367,0.815387 -3.12859,1.569276 -4.82181,1.789841 -6.02826,0.785306 -12.932693,-3.833741 -14.344719,-9.770523 -1.308802,-5.502797 1.133088,-11.398594 5.772619,-14.524114 1.7312,-1.166276 3.65071,-1.779724 5.71473,-2.033216 m -68.933995,2.324097 c 1.456397,-0.209968 4.921179,0.654521 3.097969,2.73404 -0.880077,1.003785 -2.913062,1.283453 -4.169482,1.446732 -0.414781,0.05385 -0.832543,0.05308 -1.250093,0.05155 -1.276048,-0.0048 -2.762612,-0.766688 -1.580671,-2.140267 0.966664,-1.123395 2.441371,-1.881419 3.902277,-2.092041 m 68.933995,1.453483 c -9.868674,1.541378 -10.792746,15.860429 -1.2501,18.722812 1.27676,0.382969 2.78618,0.444313 4.10747,0.253829 1.48111,-0.213535 2.78456,-1.000688 3.92887,-1.92779 1.36815,-1.108441 2.76482,-2.391836 3.37701,-4.090512 2.40147,-6.663369 -2.87975,-14.095937 -10.16325,-12.958339 M 33.476261,53.50329 c 0.910879,0.01231 2.061219,0.911937 1.496065,1.872658 -0.897378,1.525501 -4.00856,4.839795 -5.960016,4.729906 -1.575334,-0.08876 -1.904104,-1.971958 -1.234803,-3.12002 0.884049,-1.516403 3.885641,-3.507124 5.698754,-3.482544 m 75.898829,1.93081 c 3.06178,-0.240981 3.23373,3.740306 0.35717,3.939772 -2.95153,0.204669 -3.65316,-3.680337 -0.35717,-3.939772 m -65.183558,0.726741 c 2.057719,-0.461008 2.840323,2.310499 0.714067,2.82911 -2.24352,0.5472 -3.008055,-2.315173 -0.714067,-2.82911 m 7.143283,-0.0087 c 1.80239,-0.370323 3.916732,0.01173 5.714727,0.245424 9.592078,1.246486 20.448073,9.377235 16.662877,20.230455 -0.906167,2.598257 -2.434404,4.803638 -4.697648,6.42191 -2.229941,1.594471 -5.136724,2.583532 -6.620884,5.007565 -2.557346,4.17682 -1.758086,7.261816 -1.111893,11.786637 0.160462,1.123558 0.01423,2.305898 -1.375079,2.305898 -1.700224,0 -2.264177,-2.09425 -2.806665,-3.377411 -1.086554,-2.570038 -1.296156,-5.755575 -0.308104,-8.393518 0.339896,-0.907484 1.073581,-1.602895 1.417103,-2.500195 0.266349,-0.695699 -0.04212,-1.447376 0.222959,-2.143028 0.736955,-1.933761 3.592548,-2.557654 5.225005,-3.448924 2.87199,-1.568045 5.460561,-4.091791 6.474404,-7.266204 2.551985,-7.990414 -4.852796,-13.550565 -11.831973,-15.061535 -2.246857,-0.486434 -5.671635,-0.02914 -7.671318,-1.067927 -1.460868,-0.758851 -0.621296,-2.466335 0.706489,-2.739147 M 86.694732,79.128257 C 81.152843,75.724192 76.67843,71.609889 75.128849,65.020008 c -0.543508,-2.311364 -0.157134,-5.41569 1.567852,-7.140667 0.839678,-0.839678 2.164895,-1.687992 3.382648,-1.042299 0.670802,0.355678 1.285962,1.311004 0.765332,2.019282 -0.655963,0.892367 -1.728371,1.299185 -2.139171,2.413387 -1.167102,3.165467 1.789841,7.573181 3.552832,10.000781 3.6923,5.084179 10.776403,6.257332 15.121063,10.567553 7.596115,7.535927 4.902985,20.611465 -6.220039,22.745675 -5.385524,1.03334 -12.189093,-2.39046 -14.483196,-7.418329 -2.27464,-4.985197 -1.136954,-11.102029 2.648194,-14.96811 1.622166,-1.656854 5.129348,-2.600525 7.370368,-3.069024 M 88.480582,57.5704 c 1.159447,-0.136805 3.403996,-0.408674 4.394231,0.322164 1.150427,0.849063 0.557826,3.139474 -0.823205,3.350547 -1.003323,0.153355 -2.039621,-0.241356 -3.03527,-0.31472 -1.763,-0.12991 -3.421421,0.02644 -5.178979,0.146758 -0.726684,0.04972 -2.036466,0.23975 -2.435707,-0.546239 -0.446323,-0.878664 0.441698,-1.793456 1.186297,-2.117543 1.760491,-0.766237 4.01882,-0.619864 5.892633,-0.840967 m 26.252078,3.403737 c 2.35506,-0.351947 2.60282,3.270259 0.35716,3.601606 -2.43453,0.359217 -2.74307,-3.245063 -0.35716,-3.601606 m -89.827816,0.90257 c 2.506292,-0.536238 1.510903,3.700542 -0.35786,4.096435 -2.948124,0.624556 -1.771146,-3.640909 0.35786,-4.096435 m 62.342454,3.965535 c 1.997991,-0.795673 4.569368,2.797693 2.29695,3.831865 -2.118947,0.964318 -4.64203,-2.897964 -2.29695,-3.831865 m -65.190864,1.944465 c 1.165948,-0.236952 1.540945,1.374387 0.344772,1.637726 -1.222772,0.269196 -1.502796,-1.40239 -0.344772,-1.637726 m 103.756236,3.73996 c 1.84624,-0.525659 2.75111,2.035168 0.88438,2.522929 -1.73357,0.452958 -2.6806,-2.011502 -0.88438,-2.522929 m -4.82939,4.269918 c 2.39452,-0.490357 4.00046,2.775653 1.24996,3.267607 -1.98809,0.355581 -3.66641,-2.772759 -1.24996,-3.267607 m -4.64336,4.660034 c 1.83481,-0.21666 2.43133,2.612267 0.53493,2.900224 -1.96042,0.297671 -2.67709,-2.647261 -0.53493,-2.900224 M 52.763362,80.6512 c 1.145196,-0.158047 1.639303,1.127675 1.415728,2.048766 -0.311297,1.282462 -1.979228,3.705918 -3.380032,3.880381 -1.150109,0.143238 -1.971323,-0.818897 -1.67121,-1.915933 0.387162,-1.415237 2.075884,-3.797976 3.635514,-4.013214 m 54.647968,0.88328 c 1.94793,-0.443477 2.99664,2.480164 0.8921,3.024931 -2.01323,0.52114 -2.99258,-2.546729 -0.8921,-3.024931 m -18.394992,1.065311 c -3.891112,0.41706 -7.465927,1.517981 -9.130041,5.457744 -2.518861,5.9634 2.611612,14.030925 9.30863,13.363455 4.689613,-0.4674 8.582478,-4.357534 8.913297,-9.077401 0.333126,-4.752928 -3.967317,-10.293086 -9.091886,-9.743798 m 1.78586,6.350668 c -1.212752,0.511754 -2.885713,0.558145 -4.096994,-0.01943 -0.936757,-0.446679 -0.984474,-1.814363 0,-2.240731 1.760809,-0.762583 2.80054,0.339473 4.275583,1.0124 1.07411,0.490021 1.79008,0.334166 2.544835,1.429105 0.459959,0.667263 1.333237,2.174329 0.733492,2.96278 -1.904066,2.503205 -4.062576,-1.229504 -3.456916,-3.144129 m 19.825742,-1.886996 c 2.43853,-0.687602 4.15431,2.882578 1.6019,3.595404 -2.25819,0.630672 -4.00808,-2.916909 -1.6019,-3.595404 m -62.507531,3.751115 c 2.682361,-0.686986 2.516178,4.360083 0.356351,4.981388 -2.891252,0.831697 -2.614238,-4.403126 -0.356351,-4.981388 m 18.930616,1.249968 c 2.200881,-0.580253 3.399823,2.650723 1.070139,3.333873 -2.11564,0.620372 -3.296397,-2.746927 -1.070139,-3.333873 m 48.931725,1.861638 c 3.13862,0.487183 0.7308,4.725905 -1.78572,4.269937 -3.02123,-0.547422 -0.54788,-4.632154 1.78572,-4.269937 m -67.326584,7.257931 c 2.020195,-0.23969 3.928665,5.66238 1.778551,5.93341 -2.358304,0.29728 -5.04556,-5.54577 -1.778551,-5.93341 m 22.501633,0.69051 c 2.537646,-0.33373 3.105003,3.32835 0.535752,3.75166 -2.630957,0.43348 -3.292729,-3.3891 -0.535752,-3.75166 m 34.288401,-0.007 c 2.76156,-0.46132 3.59379,3.41649 0.71435,3.8305 -2.5379,0.3649 -3.45304,-3.37299 -0.71435,-3.8305 m -43.217679,13.69153 c 0.0578,-1.34264 0.478221,-2.6264 0.776632,-3.92889 0.334483,-1.45994 -0.327693,-4.45787 0.505302,-5.6224 0.853285,-1.1929 1.91699,0.45519 2.233836,1.15777 0.805751,1.78669 1.227705,6.12475 -0.361996,7.60436 -0.767534,0.71436 -2.159029,0.74644 -3.153774,0.78916 m 16.429859,-5.46973 c 2.571386,-0.30352 3.124799,3.72038 0.535756,4.17871 -2.922226,0.5173 -3.528848,-3.82543 -0.535756,-4.17871 m 14.465424,0.17362 c 4.768096,-0.73616 6.989346,7.02872 1.785859,7.91605 -4.413656,0.75265 -6.106437,-7.24898 -1.785859,-7.91605 m -39.106906,1.08819 c 1.675721,-0.45314 2.520034,2.07416 0.88177,2.52239 -1.685857,0.46122 -2.662331,-2.0409 -0.88177,-2.52239 m 67.144972,13.07518 c -2.87443,0.90482 -1.59188,5.5934 1.24996,4.73955 2.96525,-0.89094 1.91885,-5.73704 -1.24996,-4.73955 m -11.06266,10.37669 c -1.47251,0.55878 -0.58721,2.64833 0.86372,2.14317 1.38082,-0.48074 0.55479,-2.68143 -0.86372,-2.14317 m -54.120489,0.14552 c -2.503215,0.5986 -1.292704,4.23496 1.070821,3.75361 2.67738,-0.54528 1.384667,-4.34078 -1.070821,-3.75361 m 45.718019,1.63828 c -2.006816,0.75275 -0.67832,4.0366 1.24652,3.30521 2.03094,-0.77171 0.73302,-4.04773 -1.24652,-3.30521 m -34.467684,3.00564 c -2.659349,0.73385 -0.953345,4.36841 1.428413,3.59321 2.444275,-0.79556 0.778622,-4.20226 -1.428413,-3.59321 m 16.789652,1.27973 c -2.417484,0.95087 -0.907109,5.0736 1.60175,3.95891 2.417311,-1.074 0.960606,-4.96677 -1.60175,-3.95891 m 8.952972,0.051 c -1.565621,0.9233 0.18233,3.31785 1.748922,2.46327 1.768686,-0.96481 -0.240923,-3.35258 -1.748922,-2.46327 z"
       id="path1" /></g></svg>
